<?xml version="1.0" encoding="UTF-8" standalone="no"?>
<!DOCTYPE svg PUBLIC "-//W3C//DTD SVG 1.1//EN" "http://www.w3.org/Graphics/SVG/1.1/DTD/svg11.dtd">
<svg width="100%" height="100%" viewBox="0 0 157 177" version="1.1" xmlns="http://www.w3.org/2000/svg" xmlns:xlink="http://www.w3.org/1999/xlink" xml:space="preserve" xmlns:serif="http://www.serif.com/" style="fill-rule:evenodd;clip-rule:evenodd;">
    <g transform="matrix(1,0,0,1,-21.7538,-11.7538)">
        <g>
            <path d="M100,20L170,60L170,140L100,180L30,140L30,60L100,20Z" style="fill:none;fill-rule:nonzero;stroke:rgb(51,103,145);stroke-width:4px;"/>
            <g transform="matrix(0.23,0,0,0.23,49,49)">
                <g transform="matrix(1,0,0,1,-0.5,0)">
                    <path d="M323.21,324.23C326.04,300.63 325.21,297.17 342.77,300.99L347.23,301.38C360.75,302 378.43,299.21 388.82,294.38C411.18,284 424.44,266.68 402.39,271.23C352.09,281.61 348.64,264.57 348.64,264.57C401.75,185.77 423.95,85.73 404.79,61.25C352.51,-5.53 262,26 260.52,26.87L260,27C248.952,24.782 237.718,23.61 226.45,23.5C203.69,23.13 186.45,29.5 173.32,39.4C173.32,39.4 11.91,-27.1 19.42,123.03C21.02,154.97 65.2,364.68 117.89,301.34C137.15,278.18 155.76,258.59 155.76,258.59C165.131,264.917 176.413,267.799 187.67,266.74L188.57,265.97C188.302,268.973 188.423,271.998 188.93,274.97C175.36,290.14 179.35,292.8 152.21,298.39C124.75,304.05 140.88,314.12 151.41,316.76C164.18,319.95 193.72,324.48 213.68,296.54L212.89,299.73C218.21,303.99 217.89,330.35 218.61,349.18C219.33,368.01 220.61,385.59 224.47,395.95C228.33,406.31 232.84,432.95 268.47,425.36C298.28,418.97 321.07,409.78 323.15,324.25" style="fill-rule:nonzero;stroke:black;stroke-width:37.4px;"/>
                </g>
                <g transform="matrix(1,0,0,1,-0.5,0)">
                    <path d="M402.4,271.23C352.1,281.61 348.64,264.57 348.64,264.57C401.75,185.76 423.95,85.73 404.79,61.24C352.52,-5.54 262,26 260.53,26.87L260,27C248.948,24.782 237.712,23.61 226.44,23.5C203.68,23.13 186.44,29.5 173.31,39.4C173.31,39.4 11.9,-27.1 19.41,123.03C21,154.93 65.23,364.65 117.92,301.3C137.18,278.14 155.79,258.55 155.79,258.55C165.161,264.877 176.443,267.759 187.7,266.7L188.6,265.93C188.334,268.933 188.455,271.958 188.96,274.93C175.38,290.1 179.37,292.76 152.24,298.35C124.78,304.01 140.91,314.08 151.44,316.72C164.21,319.91 193.75,324.44 213.71,296.5L212.91,299.69C218.23,303.95 221.96,327.4 221.34,348.69C220.72,369.98 220.34,384.54 224.49,395.94C228.64,407.34 232.86,432.94 268.49,425.35C298.3,418.96 313.75,402.41 315.9,374.8C317.43,355.17 320.9,358.07 321.09,340.52L323.86,332.21C327.05,305.6 324.37,297.01 342.73,301.01L347.19,301.4C360.71,302.02 378.4,299.23 388.78,294.4C411.14,284.02 424.4,266.7 402.35,271.25L402.4,271.23Z" style="fill:rgb(51,103,145);fill-rule:nonzero;"/>
                </g>
                <g transform="matrix(1,0,0,1,-0.5,0)">
                    <path d="M215.87,286.48C214.48,336 216.22,385.86 221.06,397.97C225.9,410.08 236.28,433.66 271.96,425.97C301.77,419.58 312.61,407.21 317.32,379.92C320.78,359.84 327.47,304.07 328.32,292.64" style="fill:none;fill-rule:nonzero;stroke:white;stroke-width:12.47px;stroke-linecap:round;stroke-linejoin:round;"/>
                </g>
                <g transform="matrix(1,0,0,1,-0.5,0)">
                    <path d="M173.1,38.26C173.1,38.26 11.58,-27.74 19.1,122.37C20.69,154.3 64.87,364 117.56,300.68C136.82,277.51 154.23,259.34 154.23,259.34" style="fill:none;fill-rule:nonzero;stroke:white;stroke-width:12.47px;stroke-linecap:round;stroke-linejoin:round;"/>
                </g>
                <g transform="matrix(1,0,0,1,-0.5,0)">
                    <path d="M260.35,26.21C254.76,28 350.2,-8.68 404.44,60.62C423.6,85.1 401.44,185.14 348.29,263.95" style="fill:none;fill-rule:nonzero;stroke:white;stroke-width:12.47px;stroke-linecap:round;stroke-linejoin:round;"/>
                </g>
                <g transform="matrix(1,0,0,1,-0.5,0)">
                    <path d="M348.28,264C348.28,264 351.74,281 402.04,270.65C424.04,266.1 410.82,283.42 388.46,293.81C370.11,302.32 328.99,304.51 328.31,292.74C326.58,262.39 349.96,271.61 348.31,264C346.78,257.15 336.31,250.43 329.42,233.66C323.42,219.03 246.62,106.81 350.71,123.48C354.52,122.69 323.56,24.48 226.16,22.88C128.76,21.28 131.97,142.64 131.97,142.64" style="fill:none;fill-rule:nonzero;stroke:white;stroke-width:12.47px;stroke-linecap:round;stroke-linejoin:bevel;"/>
                </g>
                <g transform="matrix(1,0,0,1,-0.5,0)">
                    <path d="M188.6,274.33C175,289.5 179,292.16 151.88,297.75C124.42,303.41 140.55,313.48 151.08,316.12C163.85,319.31 193.39,323.84 213.35,295.89C219.43,287.38 213.35,273.8 204.96,270.34C200.93,268.67 195.54,266.58 188.6,274.33Z" style="fill:none;fill-rule:nonzero;stroke:white;stroke-width:12.47px;stroke-linecap:round;stroke-linejoin:round;"/>
                </g>
                <g transform="matrix(1,0,0,1,-0.5,0)">
                    <path d="M187.71,274.07C186.34,265.15 190.64,254.54 195.25,242.13C202.17,223.5 218.14,204.88 205.37,145.79C195.85,101.79 131.97,136.63 131.93,142.6C131.89,148.57 134.82,172.86 130.86,201.15C125.7,238.06 154.35,269.28 187.34,266.09" style="fill:none;fill-rule:nonzero;stroke:white;stroke-width:12.47px;stroke-linecap:round;stroke-linejoin:round;"/>
                </g>
                <g transform="matrix(1,0,0,1,-0.5,0)">
                    <path d="M172.52,141.7C172.23,143.7 176.25,149.18 181.52,149.91C186.79,150.64 191.23,146.39 191.52,144.35C191.81,142.31 187.79,140.06 182.52,139.35C177.25,138.64 172.8,139.68 172.52,141.72L172.52,141.7Z" style="fill:white;fill-rule:nonzero;stroke:white;stroke-width:4.16px;"/>
                </g>
                <g transform="matrix(1,0,0,1,-0.5,0)">
                    <path d="M331.94,137.54C332.22,139.54 328.21,145.02 322.94,145.75C317.67,146.48 313.22,142.23 312.94,140.19C312.66,138.15 316.68,135.91 321.94,135.19C327.2,134.47 331.66,135.52 331.94,137.56L331.94,137.54Z" style="fill:white;fill-rule:nonzero;stroke:white;stroke-width:2.08px;"/>
                </g>
                <g transform="matrix(1,0,0,1,-0.5,0)">
                    <path d="M350.68,123.43C351.54,139.43 347.23,150.32 346.68,167.34C345.88,192.09 358.48,220.41 339.49,248.78" style="fill:none;fill-rule:nonzero;stroke:white;stroke-width:12.47px;stroke-linecap:round;stroke-linejoin:round;"/>
                </g>
            </g>
        </g>
        <g transform="matrix(1.0421,0.601654,-0.601654,1.0421,33.5604,135.149)">
            <text x="0px" y="0px" style="font-family:'Monaco';font-size:11px;fill:rgb(51,103,145);">PostgreSQL</text>
        </g>
    </g>
</svg>
